<?xml version="1.0" standalone="no"?>
<!DOCTYPE svg PUBLIC "-//W3C//DTD SVG 20010904//EN"
 "http://www.w3.org/TR/2001/REC-SVG-20010904/DTD/svg10.dtd">
<svg version="1.0" xmlns="http://www.w3.org/2000/svg"
 width="260.000000pt" height="260.000000pt" viewBox="0 0 260.000000 260.000000"
 preserveAspectRatio="xMidYMid meet">
<metadata>
Created by potrace 1.14, written by Peter Selinger 2001-2017
</metadata>
<g transform="translate(0.000000,260.000000) scale(0.100000,-0.100000)"
fill="#000000" stroke="none">
<path d="M531 2564 c-26 -33 -26 -54 -1 -86 25 -33 49 -39 89 -22 23 10 33 22
38 45 6 31 7 31 51 25 70 -10 147 -50 211 -111 64 -61 123 -158 106 -174 -6
-5 -91 -33 -190 -61 -99 -29 -193 -59 -208 -67 -25 -12 -27 -16 -15 -30 7 -9
42 -29 76 -45 47 -21 62 -33 58 -44 -3 -9 -6 -20 -6 -26 0 -5 -17 5 -37 22
-20 18 -57 42 -82 53 -45 20 -182 59 -188 53 -10 -10 -26 -181 -26 -281 -1
-100 3 -130 21 -182 l23 -61 -20 -79 c-55 -216 -47 -387 25 -510 27 -47 23
-50 -38 -31 -27 8 -42 8 -49 1 -7 -7 -23 -7 -50 1 -40 12 -40 12 -154 247 -63
128 -122 239 -130 244 -11 7 -18 6 -25 -5 -5 -8 -7 -17 -6 -20 42 -76 249
-518 248 -529 -2 -34 21 -128 40 -165 15 -29 18 -49 13 -81 -6 -42 -6 -43 47
-78 74 -49 165 -94 221 -108 l47 -13 0 -76 c0 -70 -8 -144 -25 -232 -6 -31 -4
-38 17 -52 13 -8 57 -20 98 -27 41 -6 125 -22 187 -36 104 -24 125 -25 285
-20 191 6 279 22 449 81 177 61 249 117 249 192 0 34 0 34 48 34 50 0 139 32
189 68 17 12 55 27 84 33 64 14 105 50 115 103 3 21 17 48 30 61 13 13 24 28
24 33 0 5 17 12 39 16 50 8 58 18 66 91 7 51 14 67 47 103 58 63 78 114 78
198 0 194 -107 330 -287 363 -96 18 -233 -22 -304 -90 l-37 -34 -6 65 c-6 66
-21 124 -48 190 -14 32 -13 47 11 173 28 156 25 196 -29 331 l-28 71 -55 3
c-107 6 -228 -36 -350 -121 -31 -22 -59 -38 -60 -36 -5 7 -28 102 -25 104 2 1
26 10 53 19 92 34 114 55 75 76 -44 23 -403 130 -419 125 -14 -4 -20 3 -29 33
-41 135 -232 281 -369 282 -28 0 -55 5 -58 10 -3 6 -24 10 -45 10 -30 0 -43
-6 -59 -26z m83 -20 c21 -21 20 -30 -6 -48 -15 -11 -26 -12 -40 -5 -23 12 -23
45 0 58 23 14 28 14 46 -5z m1239 -541 c26 -65 47 -145 47 -177 0 -17 -7 -71
-16 -119 -14 -74 -19 -87 -33 -81 -9 3 -24 9 -33 11 -30 9 -21 -31 20 -96 137
-211 77 -523 -128 -659 -101 -68 -198 -94 -371 -100 -174 -5 -413 23 -617 75
-124 31 -223 122 -257 237 -31 102 -12 321 39 463 14 39 13 42 -5 59 -37 33
-52 117 -45 240 3 61 9 126 12 144 7 31 9 32 43 26 93 -15 221 -109 232 -171
5 -23 62 -62 136 -93 77 -32 256 -26 418 14 95 24 110 32 121 67 6 23 29 46
82 84 97 69 204 109 303 112 34 1 38 -2 52 -36z m498 -684 c84 -21 166 -105
190 -193 7 -23 12 -73 11 -113 0 -80 -14 -112 -74 -171 -29 -27 -39 -31 -66
-26 -18 4 -32 7 -32 8 0 0 9 30 20 64 23 72 26 132 8 150 -17 17 -83 15 -98
-2 -9 -12 -17 -13 -36 -4 -19 9 -33 9 -58 0 -18 -7 -47 -9 -63 -6 -24 5 -36 1
-52 -15 -12 -12 -21 -27 -21 -35 0 -25 29 -95 54 -132 29 -43 26 -54 -13 -54
-42 0 -105 51 -132 107 -32 64 -39 194 -14 259 52 137 212 206 376 163z m47
-322 c4 -31 -33 -163 -48 -172 -5 -3 -44 -8 -87 -12 l-79 -6 -28 43 c-34 51
-57 115 -50 135 4 8 18 15 33 15 26 0 27 -2 27 -47 -1 -45 1 -48 26 -51 38 -4
55 36 33 77 -13 26 -13 29 3 33 32 9 43 -2 37 -36 -7 -37 23 -85 44 -72 24 15
33 57 16 82 -13 21 -13 24 3 33 9 6 28 10 42 8 19 -1 26 -8 28 -30z m-435
-149 c16 -27 45 -58 72 -75 24 -15 44 -35 45 -44 0 -8 7 -24 15 -35 8 -10 15
-29 15 -40 0 -28 23 -46 59 -48 17 -1 40 -13 56 -29 15 -15 32 -27 36 -27 20
0 7 -50 -17 -69 -34 -27 -54 -27 -54 -1 0 87 -117 143 -175 85 -46 -45 -29
-112 40 -151 16 -9 14 -12 -21 -29 -50 -24 -162 -33 -168 -14 -49 180 -97 280
-170 355 l-53 55 50 26 c63 31 150 113 185 172 l26 45 16 -65 c8 -35 28 -85
43 -111z m247 96 c0 -26 -17 -33 -26 -9 -8 20 3 48 16 40 5 -3 10 -17 10 -31z
m100 11 c0 -14 -4 -25 -9 -25 -12 0 -23 29 -15 41 10 18 24 9 24 -16z m-1979
-56 c21 -11 21 -10 2 -101 l-6 -33 -13 30 c-13 30 -19 115 -8 115 3 0 14 -5
25 -11z m174 -24 c42 -8 86 -22 98 -29 12 -7 43 -21 70 -31 26 -10 47 -24 47
-31 0 -7 -6 -38 -14 -68 -17 -62 -12 -93 15 -101 22 -7 23 -21 4 -55 -8 -14
-14 -30 -15 -37 0 -7 29 -45 65 -85 l65 -72 0 -128 c0 -103 -3 -130 -14 -134
-18 -7 -158 14 -169 25 -5 5 -4 42 2 82 5 41 11 124 12 184 l1 110 -35 -3
c-42 -3 -117 25 -209 80 -77 46 -75 40 -53 167 9 47 18 101 21 119 4 23 9 32
19 28 8 -3 48 -12 90 -21z m335 -104 c3 -3 3 -77 0 -164 l-5 -158 -39 40 -38
39 21 30 c31 45 28 81 -9 94 -21 7 -29 15 -26 27 3 9 10 38 17 64 11 47 12 48
43 41 17 -3 33 -9 36 -13z m1575 -11 c39 -16 -33 -23 -118 -12 l-82 10 95 -3
c63 -2 82 -1 55 5 l-40 7 35 1 c19 0 44 -3 55 -8z m-750 -77 c24 -25 60 -78
80 -118 34 -69 85 -243 85 -289 0 -27 -41 -67 -95 -94 -73 -36 -266 -93 -388
-114 -137 -23 -335 -21 -417 4 l-45 14 -3 154 -2 155 36 23 35 23 47 -29 c66
-42 137 -64 212 -66 54 -1 73 3 111 26 85 50 140 138 141 227 0 53 -14 84 -49
102 -32 17 -29 29 10 30 17 0 57 6 87 13 67 15 92 5 155 -61z m-412 27 c109
-27 161 -57 165 -95 8 -71 -52 -166 -131 -207 -70 -35 -195 -10 -284 58 -18
13 -30 30 -28 37 3 6 11 61 20 120 8 60 17 112 19 116 7 11 149 -6 239 -29z
m982 30 c38 -9 37 -9 -17 -6 -31 1 -55 0 -53 -4 2 -3 -5 -6 -16 -6 -24 0 -25
13 -1 19 27 7 44 7 87 -3z m-1279 -72 c-11 -99 -15 -111 -34 -96 -18 16 -42
70 -42 98 0 26 34 60 61 60 20 0 21 -3 15 -62z m1412 5 c-16 -2 -40 -2 -55 0
-16 2 -3 4 27 4 30 0 43 -2 28 -4z m-140 -10 c-10 -2 -26 -2 -35 0 -10 3 -2 5
17 5 19 0 27 -2 18 -5z m75 -60 c-7 -2 -19 -2 -25 0 -7 3 -2 5 12 5 14 0 19
-2 13 -5z m-1373 -109 c0 -12 -11 -29 -25 -38 l-25 -16 0 55 0 56 25 -18 c13
-10 25 -28 25 -39z m1188 30 c16 -11 22 -24 20 -42 -3 -24 -7 -27 -37 -25 -46
2 -77 33 -62 62 14 25 48 27 79 5z"/>
<path d="M648 1363 c-29 -34 -38 -62 -38 -122 0 -63 17 -95 49 -89 22 4 51 66
57 125 8 77 -31 128 -68 86z"/>
<path d="M1192 1315 c-23 -30 -45 -116 -35 -142 11 -32 35 -53 60 -53 63 0 73
206 11 218 -8 2 -25 -9 -36 -23z"/>
<path d="M782 1163 c-58 -29 -85 -113 -55 -173 24 -47 71 -76 144 -89 102 -18
205 12 234 69 40 77 4 163 -80 192 -66 23 -198 23 -243 1z m224 -44 c66 -20
92 -87 52 -133 -49 -56 -218 -57 -274 0 -48 47 -22 128 46 144 39 9 129 3 176
-11z"/>
<path d="M834 1076 c-3 -8 -4 -29 -2 -48 2 -25 8 -34 26 -36 18 -3 22 1 22 25
0 44 -11 73 -26 73 -8 0 -17 -6 -20 -14z"/>
<path d="M971 1071 c-16 -29 -14 -78 4 -85 20 -7 37 27 33 66 -4 37 -22 47
-37 19z"/>
</g>
</svg>
